<svg xmlns="http://www.w3.org/2000/svg" width="440.133" height="440.133" viewBox="0 0 440.133 440.133" fill="none">
<svg x="-1.5405" y="-1.5405" width="443.2139" height="443.2139" viewBox="0 0 441.14 441.14" preserveAspectRatio="none" overflow="visible"><path id="Vector" d="M220.57 439.623C341.55 439.623 439.623 341.55 439.623 220.57C439.623 99.5909 341.55 1.51782 220.57 1.51782C99.5909 1.51782 1.51782 99.5909 1.51782 220.57C1.51782 341.55 99.5909 439.623 220.57 439.623Z" stroke="url(#paint0_linear_0_9)" stroke-width="3.03565" stroke-miterlimit="10"/>
<defs>
<linearGradient id="paint0_linear_0_9" x1="220.57" y1="1.51782" x2="220.57" y2="439.623" gradientUnits="userSpaceOnUse">
<stop stop-color="#0258BE"/>
<stop offset="1" stop-color="#11213D"/>
</linearGradient>
</defs></svg>
<svg x="33.7392" y="33.7392" width="372.6546" height="372.6546" viewBox="0 0 370.956 370.956" preserveAspectRatio="none" overflow="visible"><path id="Vector" d="M185.478 369.438C287.077 369.438 369.438 287.077 369.438 185.478C369.438 83.8797 287.077 1.51782 185.478 1.51782C83.8797 1.51782 1.51782 83.8797 1.51782 185.478C1.51782 287.077 83.8797 369.438 185.478 369.438Z" stroke="url(#paint0_linear_0_7)" stroke-width="3.03565" stroke-miterlimit="10"/>
<defs>
<linearGradient id="paint0_linear_0_7" x1="185.478" y1="1.51782" x2="185.478" y2="369.438" gradientUnits="userSpaceOnUse">
<stop stop-color="#0258BE"/>
<stop offset="1" stop-color="#11213D"/>
</linearGradient>
</defs></svg>
<svg x="69.0283" y="69.0283" width="302.0764" height="302.0764" viewBox="0 0 300.711 300.711" preserveAspectRatio="none" overflow="visible"><path id="Vector" d="M150.356 299.194C232.557 299.194 299.194 232.557 299.194 150.356C299.194 68.1548 232.557 1.51782 150.356 1.51782C68.1548 1.51782 1.51782 68.1548 1.51782 150.356C1.51782 232.557 68.1548 299.194 150.356 299.194Z" stroke="url(#paint0_linear_0_5)" stroke-width="3.03565" stroke-miterlimit="10"/>
<defs>
<linearGradient id="paint0_linear_0_5" x1="150.356" y1="1.51782" x2="150.356" y2="299.194" gradientUnits="userSpaceOnUse">
<stop stop-color="#0258BE"/>
<stop offset="1" stop-color="#11213D"/>
</linearGradient>
</defs></svg>
<svg x="104.2769" y="104.2769" width="231.5792" height="231.5792" viewBox="0 0 230.527 230.527" preserveAspectRatio="none" overflow="visible"><path id="Vector" d="M115.264 229.009C178.084 229.009 229.009 178.084 229.009 115.264C229.009 52.4435 178.084 1.51782 115.264 1.51782C52.4435 1.51782 1.51782 52.4435 1.51782 115.264C1.51782 178.084 52.4435 229.009 115.264 229.009Z" stroke="url(#paint0_linear_0_6)" stroke-width="3.03565" stroke-miterlimit="10"/>
<defs>
<linearGradient id="paint0_linear_0_6" x1="115.264" y1="1.51782" x2="115.264" y2="229.009" gradientUnits="userSpaceOnUse">
<stop stop-color="#0258BE"/>
<stop offset="1" stop-color="#11213D"/>
</linearGradient>
</defs></svg>
<svg x="138.7383" y="138.7383" width="162.6564" height="162.6564" viewBox="0 0 161.865 161.865" preserveAspectRatio="none" overflow="visible"><path id="Vector" d="M80.9324 160.347C124.792 160.347 160.347 124.792 160.347 80.9324C160.347 37.0729 124.792 1.51782 80.9324 1.51782C37.0729 1.51782 1.51782 37.0729 1.51782 80.9324C1.51782 124.792 37.0729 160.347 80.9324 160.347Z" stroke="url(#paint0_linear_0_8)" stroke-width="3.03565" stroke-miterlimit="10"/>
<defs>
<linearGradient id="paint0_linear_0_8" x1="80.9323" y1="1.51782" x2="80.9323" y2="160.347" gradientUnits="userSpaceOnUse">
<stop stop-color="#0258BE"/>
<stop offset="1" stop-color="#11213D"/>
</linearGradient>
</defs></svg>
<svg x="174.7948" y="174.7948" width="90.5434" height="90.5434" viewBox="0 0 90.098 90.098" preserveAspectRatio="none" overflow="visible"><path id="Vector" d="M45.049 88.5802C69.0906 88.5802 88.5802 69.0906 88.5802 45.049C88.5802 21.0074 69.0906 1.51782 45.049 1.51782C21.0074 1.51782 1.51782 21.0074 1.51782 45.049C1.51782 69.0906 21.0074 88.5802 45.049 88.5802Z" stroke="url(#paint0_linear_0_4)" stroke-width="3.03565" stroke-miterlimit="10"/>
<defs>
<linearGradient id="paint0_linear_0_4" x1="45.049" y1="1.51782" x2="45.049" y2="88.5802" gradientUnits="userSpaceOnUse">
<stop stop-color="#0258BE"/>
<stop offset="1" stop-color="#11213D"/>
</linearGradient>
</defs></svg>
</svg>
